<svg xmlns="http://www.w3.org/2000/svg" xmlns:xlink="http://www.w3.org/1999/xlink" id="svg_canvas" data-noselect="" viewBox="0 0 800 600" width="800" height="600" preserveAspectRatio="none" version="1.1">
	<g id="shape_AjwXCJgVSQ" transform="translate(243.37589263916004,234.35412895753998) rotate(0,80,49.967828510696) scale(1,1)" filter="" style="cursor: move; opacity: 1;">
		<g>
			<rect fill="rgba(0,0,0,0)" width="180" height="119.935657021393" x="-10" y="-10"/>
			<svg xmlns="http://www.w3.org/2000/svg" xmlns:xlink="http://www.w3.org/1999/xlink" version="1.1" id="图层_1" x="0px" y="0px" width="160" height="99.935657021393" viewBox="10.189589500427246 43.904483795166016 179.6204071044922 112.19052124023438" enable-background="new 0 0 200 200" xml:space="preserve" preserveAspectRatio="none" class="style-removed" data-parent="shape_AjwXCJgVSQ">
				<g>
					<path fill="#246fdd" d="M106.321,89.494c0,0,21.712-23.689,49.111-19.623c20.564,3.052,29.926,14.137,34.378,20.14H176.37   c0,0-9.943-9.084-23.78-10.899C140.013,77.462,129.843,78.121,106.321,89.494z" stroke-width="0"/>
					<path fill="#246fdd" d="M147.161,71.716c0,0-5.801-22.574-33.028-27.054S61.92,55.92,43.31,82.687l22.517-4.021   c0,0,19.354-29.195,47.101-24.24c16.083,2.872,24.699,10.109,27.916,18.496L147.161,71.716z" stroke-width="0"/>
					<path fill="#24dd7f" d="M62.38,83.893c0,0-46.698,7.782-51.696,38.255c-4.136,25.216,18.611,33.947,33.43,33.947   c18.036,0,112.698,0,112.698,0l1.206-5.687c0,0-71.397,0.324-101.38,0c-15.968-0.172-28.147-4.996-28.147-22.574   c0-14.992,12.867-26.502,29.065-32.034L62.38,83.893z" stroke-width="0"/>
				</g>
			</svg>
		</g>
		</g>
		<g id="shape_W7YDZ35Q8m" transform="translate(225.90398406982007,97.55687275143998) rotate(0,206.27399295228,203.822) scale(1,1)" filter="" style="cursor: move; opacity: 1;">
			<g>
				<svg xmlns="http://www.w3.org/2000/svg" xmlns:xlink="http://www.w3.org/1999/xlink" version="1.1" width="446" height="407.644" viewBox="0 0 446 407.644" data-parent="shape_W7YDZ35Q8m">
					<rect fill="rgba(0,0,0,0)" width="214" height="58" x="58" y="174.822"/>
					<g data-width="213.44" transform="translate(58, 0)">
						<path d="M16.12-35.21L9.74-5.22L1.91-5.22L8.35-35.21L16.12-35.21ZM51.39-5.22L43.62-5.22L37.18-35.21L44.95-35.21L51.39-5.22ZM25.46-0.41L15.78-0.41L17.75-5.80L21.29-5.80Q21.81-5.80 22.19-6.18Q22.56-6.55 22.56-7.13L22.56-7.13L22.56-41.35L30.62-41.35L30.62-5.57Q30.62-3.42 29.12-1.91Q27.61-0.41 25.46-0.41L25.46-0.41Z" transform="translate(0 223.822) skewX(-14)" fill="#246fdd" stroke="#246fdd" stroke-width="0.097" data-glyph-w="53.36" data-glyph-h="58" data-glyph-ascender="49.822" data-glyph-descender="-8.178"/>
						<path d="M12.93-6.73L9.92 0L0.99 0L4.00-6.73L12.93-6.73ZM24.36-6.73L27.38 0L18.39 0L15.37-6.73L24.36-6.73ZM27.90-6.73L36.83-6.73L39.85 0L30.91 0L27.90-6.73ZM40.37-6.73L49.36-6.73L52.32 0L43.38 0L40.37-6.73ZM52.14-13.17L52.14-7.89L1.16-7.89L1.16-13.17L22.62-13.17L22.62-15.02L2.78-15.02L2.78-20.30L22.62-20.30L22.62-22.10L10.27-22.10L2.20-22.10L2.20-27.55L2.20-36.37L2.20-40.02L2.20-41.82L51.27-41.82L51.27-40.02L51.27-36.37L51.27-28.48Q51.27-27.14 50.78-25.98Q50.29-24.82 49.42-23.95Q48.55-23.08 47.39-22.59Q46.23-22.10 44.89-22.10L44.89-22.10L43.27-22.10L30.68-22.10L30.68-20.30L50.58-20.30L50.58-15.02L30.68-15.02L30.68-13.17L52.14-13.17ZM43.27-29.35L43.27-36.37L30.68-36.37L30.68-27.55L41.41-27.55Q42.17-27.55 42.72-28.07Q43.27-28.59 43.27-29.35L43.27-29.35ZM10.27-27.55L22.62-27.55L22.62-36.37L10.27-36.37L10.27-27.55ZM18.97-35.44L21.11-28.65L13.80-28.65L11.66-35.44L18.97-35.44ZM39.56-28.65L32.19-28.65L34.51-35.44L41.88-35.44L39.56-28.65Z" transform="translate(53.36 223.822) skewX(-14)" fill="#246fdd" stroke="#246fdd" stroke-width="0.097" data-glyph-w="53.36" data-glyph-h="58" data-glyph-ascender="49.822" data-glyph-descender="-8.178"/>
						<path d="M1.16-29.46L1.16-35.21L4.99-35.21L4.99-41.82L13.80-41.82L13.80-35.21L17.69-35.21L17.69-29.46L13.80-29.46L13.80 0.06L4.99 0.06L4.99-29.46L1.16-29.46ZM27.84-6.90L31.38-0.87L24.71-0.87L21.17-6.90L27.84-6.90ZM35.03-4.47L40.08-4.47Q40.89-4.47 41.41-4.99Q41.93-5.51 41.93-6.32L41.93-6.32L41.93-8.00L18.56-8.00L18.56-12.53L41.93-12.53L41.93-14.09L49.36-14.09L49.36-12.53L52.08-12.53L52.08-8.00L49.36-8.00L49.36-6.32Q49.36-4.99 48.84-3.83Q48.31-2.67 47.44-1.80Q46.57-0.93 45.39-0.43Q44.20 0.06 42.86 0.06L42.86 0.06L42.57 0.06L41.93 0.06L32.65 0.06L35.03-4.47ZM18.56-34.97L18.56-39.56L31.26-39.56L31.26-41.82L39.38-41.82L39.38-39.56L44.20-39.56L43.73-41.88L50.75-41.88L52.14-34.97L39.38-34.97L39.38-33.58L43.96-33.58L45.24-33.58Q46.52-33.58 47.68-33.09Q48.84-32.60 49.71-31.73Q50.58-30.86 51.10-29.70Q51.62-28.54 51.62-27.20L51.62-27.20L51.62-26.85L51.62-22.97L51.62-21.34L51.62-17.46L51.62-15.31L43.96-15.31L43.96-17.46L39.38-17.46L39.38-15.66L31.26-15.66L31.26-17.46L26.68-17.46L26.68-15.31L19.02-15.31L19.02-17.46L19.02-21.34L19.02-22.97L19.02-26.85L19.02-28.54L19.02-33.58L26.68-33.58L31.26-33.58L31.26-34.97L18.56-34.97ZM26.68-28.54L26.68-26.85L31.26-26.85L31.26-28.54L26.68-28.54ZM26.68-21.34L31.26-21.34L31.26-22.97L26.68-22.97L26.68-21.34ZM43.96-21.34L43.96-22.97L39.38-22.97L39.38-21.34L43.96-21.34ZM42.17-28.54L39.38-28.54L39.38-26.85L43.96-26.85Q43.91-27.55 43.41-28.04Q42.92-28.54 42.17-28.54L42.17-28.54Z" transform="translate(106.72 223.822) skewX(-14)" fill="#246fdd" stroke="#246fdd" stroke-width="0.097" data-glyph-w="53.36" data-glyph-h="58" data-glyph-ascender="49.822" data-glyph-descender="-8.178"/>
						<path d="M45.59-26.10L45.47-26.10Q43.79-24.24 41.70-22.74Q39.61-21.23 37.18-20.07L37.18-20.07Q41.01-19.78 44.63-19.72Q48.26-19.66 51.50-19.66L51.50-19.66L51.50-14.73Q48.60-14.67 45.30-14.67Q41.99-14.67 38.43-14.79Q34.86-14.91 31.20-15.20Q27.55-15.49 24.07-16.07L24.07-16.07Q18.79-15.14 13.05-14.79Q7.31-14.44 1.22-14.38L1.22-14.38L1.22-19.66Q3.54-19.60 6.06-19.69Q8.58-19.78 11.25-19.95L11.25-19.95Q8.06-21.58 6.03-23.78L6.03-23.78L16.59-23.78Q18.39-23.14 20.27-22.65Q22.16-22.16 24.13-21.69L24.13-21.69Q27.96-22.50 31.09-23.58Q34.22-24.65 36.25-26.10L36.25-26.10L4.81-26.10L6.55-30.04L1.22-30.04L1.22-39.38L22.21-39.38L21.11-41.88L31.09-41.88L32.19-39.38L45.82-39.38Q47.15-39.38 48.31-38.89Q49.47-38.40 50.32-37.53Q51.16-36.66 51.65-35.50Q52.14-34.34 52.14-33.06L52.14-33.06L52.14-30.04L45.59-30.04L45.59-26.10ZM9.22-32.71L16.30-32.71L15.54-30.97L44.20-30.97L44.20-33.18Q44.20-33.93 43.67-34.45Q43.15-34.97 42.40-34.97L42.40-34.97L9.22-34.97L9.22-32.71ZM48.37-12.93L48.37-6.26Q48.37-4.93 47.88-3.80Q47.39-2.67 46.52-1.80Q45.65-0.93 44.49-0.43Q43.33 0.06 41.99 0.06L41.99 0.06L6.03 0.06L6.03-12.93L48.37-12.93ZM41.01-6.15L41.01-8.53L13.40-8.53L13.40-4.35L39.15-4.35Q39.96-4.35 40.48-4.87Q41.01-5.39 41.01-6.15L41.01-6.15Z" transform="translate(160.07999999999998 223.822) skewX(-14)" fill="#246fdd" stroke="#246fdd" stroke-width="0.097" data-glyph-w="53.36" data-glyph-h="58" data-glyph-ascender="49.822" data-glyph-descender="-8.178"/>
					</g>
				</svg>
			</g>
		</g>
		<g id="shape_KGTd7uuhMV" transform="translate(270.62410736084,264.69860541746) rotate(0,129.63989257812,92.274169921875) scale(1,1)" filter="" style="cursor: move; opacity: 1;">
		<g>
			<svg xmlns="http://www.w3.org/2000/svg" xmlns:xlink="http://www.w3.org/1999/xlink" version="1.1" width="361" height="176.89453125" viewBox="0 0 361 176.89453125" data-parent="shape_KGTd7uuhMV">
				<rect fill="rgba(0,0,0,0)" width="261" height="25" x="25" y="75.947265625"/>
				<g data-width="260.40166015625" transform="translate(25, 0)">
					<path d="M9.01-18.44L3.09-18.44L3.09-12.84L9.01-12.84Q10.17-12.84 10.99-13.66L10.99-13.66Q11.80-14.48 11.80-15.64L11.80-15.64Q11.80-16.81 10.99-17.63L10.99-17.63Q10.17-18.44 9.01-18.44L9.01-18.44ZM9.63-10.97L3.09-10.97L3.09-4.75L9.63-4.75Q10.91-4.75 11.83-5.65L11.83-5.65Q12.74-6.57 12.74-7.86L12.74-7.86Q12.74-9.14 11.83-10.06L11.83-10.06Q10.91-10.97 9.63-10.97L9.63-10.97ZM9.63-2.88L1.22-2.88L1.22-20.31L9.01-20.31Q10.94-20.31 12.30-18.95L12.30-18.95Q13.67-17.58 13.67-15.64L13.67-15.64Q13.67-13.71 12.30-12.34L12.30-12.34Q12.22-12.26 12.13-12.18L12.13-12.18Q12.67-11.85 13.15-11.38L13.15-11.38Q14.61-9.92 14.61-7.86L14.61-7.86Q14.61-5.80 13.15-4.33L13.15-4.33Q11.69-2.88 9.63-2.88L9.63-2.88Z" transform="translate(0 95.947265625) skewX(0)" fill="rgb(36, 111, 221)" stroke="rgb(36, 111, 221)" stroke-width="0.042" data-glyph-w="15.34423828125" data-glyph-h="26.0498046875" data-glyph-ascender="20.947265625" data-glyph-descender="-5.1025390625"/>
					<path d="M3.09-20.31L3.09-4.75L11.80-4.75L11.80-2.88L1.22-2.88L1.22-20.31L3.09-20.31Z" transform="translate(15.34423828125 95.947265625) skewX(0)" fill="rgb(36, 111, 221)" stroke="rgb(36, 111, 221)" stroke-width="0.042" data-glyph-w="12.53662109375" data-glyph-h="26.0498046875" data-glyph-ascender="20.947265625" data-glyph-descender="-5.1025390625"/>
					<path d="M8.07-2.56Q10.91-2.56 12.92-4.21L12.92-4.21Q14.92-5.85 14.92-8.17L14.92-8.17L14.92-20.31L13.05-20.31L13.05-8.17Q13.05-6.62 11.60-5.53L11.60-5.53Q10.13-4.43 8.07-4.43L8.07-4.43Q6.01-4.43 4.55-5.53L4.55-5.53Q3.09-6.62 3.09-8.17L3.09-8.17L3.09-20.31L1.22-20.31L1.22-8.17Q1.22-5.85 3.22-4.21L3.22-4.21Q5.24-2.56 8.07-2.56L8.07-2.56Z" transform="translate(27.880859375 95.947265625) skewX(0)" fill="rgb(36, 111, 221)" stroke="rgb(36, 111, 221)" stroke-width="0.042" data-glyph-w="16.1376953125" data-glyph-h="26.0498046875" data-glyph-ascender="20.947265625" data-glyph-descender="-5.1025390625"/>
					<path d="M3.09-18.44L3.09-12.52L13.67-12.52L13.67-10.66L3.09-10.66L3.09-4.75L13.67-4.75L13.67-2.88L1.22-2.88L1.22-20.31L13.67-20.31L13.67-18.44L3.09-18.44Z" transform="translate(44.0185546875 95.947265625) skewX(0)" fill="rgb(36, 111, 221)" stroke="rgb(36, 111, 221)" stroke-width="0.042" data-glyph-w="14.404296875" data-glyph-h="26.0498046875" data-glyph-ascender="20.947265625" data-glyph-descender="-5.1025390625"/>
					<path d="M7.90-18.75Q9.86-18.75 11.22-17.80L11.22-17.80Q12.56-16.85 12.56-15.49L12.56-15.49L14.43-15.49Q14.43-17.63 12.56-19.12L12.56-19.12Q10.67-20.63 7.90-20.63L7.90-20.63Q5.11-20.63 3.27-19.32L3.27-19.32Q1.35-17.97 1.35-15.80L1.35-15.80Q1.35-13.48 3.20-12.34L3.20-12.34Q4.44-11.58 7.28-11.10L7.28-11.10Q10.46-10.53 11.34-10.17L11.34-10.17Q13.18-9.41 13.18-7.70L13.18-7.70Q13.18-6.23 11.63-5.31L11.63-5.31Q10.16-4.43 7.90-4.43L7.90-4.43Q5.59-4.43 4.08-5.62L4.08-5.62Q2.60-6.77 2.60-8.48L2.60-8.48L0.73-8.48Q0.73-5.99 2.73-4.30L2.73-4.30Q4.79-2.56 7.90-2.56L7.90-2.56Q10.97-2.56 12.95-3.91L12.95-3.91Q15.05-5.32 15.05-7.70L15.05-7.70Q15.05-10.10 13.21-11.28L13.21-11.28Q11.94-12.10 9.14-12.60L9.14-12.60Q5.83-13.20 5.08-13.49L5.08-13.49Q3.22-14.21 3.22-15.80L3.22-15.80Q3.22-17.16 4.59-17.98L4.59-17.98Q5.90-18.75 7.90-18.75L7.90-18.75Z" transform="translate(58.4228515625 95.947265625) skewX(0)" fill="rgb(36, 111, 221)" stroke="rgb(36, 111, 221)" stroke-width="0.042" data-glyph-w="15.78369140625" data-glyph-h="26.0498046875" data-glyph-ascender="20.947265625" data-glyph-descender="-5.1025390625"/>
					<path d="M8.03-10.34L8.03-2.88L9.90-2.88L9.90-10.36L17.68-20.31L15.31-20.31L8.96-12.18L2.61-20.31L0.24-20.31L8.03-10.34Z" transform="translate(74.20654296875 95.947265625) skewX(0)" fill="rgb(36, 111, 221)" stroke="rgb(36, 111, 221)" stroke-width="0.042" data-glyph-w="17.919921875" data-glyph-h="26.0498046875" data-glyph-ascender="20.947265625" data-glyph-descender="-5.1025390625"/>
					<path d="M9.77-20.63Q13.50-20.63 16.15-17.98L16.15-17.98Q18.79-15.33 18.79-11.60L18.79-11.60Q18.79-7.85 16.15-5.21L16.15-5.21Q13.50-2.56 9.77-2.56L9.77-2.56Q6.02-2.56 3.38-5.21L3.38-5.21Q0.73-7.85 0.73-11.60L0.73-11.60Q0.73-15.33 3.38-17.98L3.38-17.98Q6.02-20.63 9.77-20.63L9.77-20.63ZM9.77-18.75L9.77-18.75Q6.80-18.75 4.70-16.66L4.70-16.66Q2.60-14.56 2.60-11.60L2.60-11.60Q2.60-8.63 4.70-6.53L4.70-6.53Q6.80-4.43 9.77-4.43L9.77-4.43Q12.73-4.43 14.83-6.53L14.83-6.53Q16.92-8.63 16.92-11.60L16.92-11.60Q16.92-14.56 14.83-16.66L14.83-16.66Q12.73-18.75 9.77-18.75Z" transform="translate(92.12646484375 95.947265625) skewX(0)" fill="rgb(36, 111, 221)" stroke="rgb(36, 111, 221)" stroke-width="0.042" data-glyph-w="19.51904296875" data-glyph-h="26.0498046875" data-glyph-ascender="20.947265625" data-glyph-descender="-5.1025390625"/>
					<path d="M8.07-2.56Q10.91-2.56 12.92-4.21L12.92-4.21Q14.92-5.85 14.92-8.17L14.92-8.17L14.92-20.31L13.05-20.31L13.05-8.17Q13.05-6.62 11.60-5.53L11.60-5.53Q10.13-4.43 8.07-4.43L8.07-4.43Q6.01-4.43 4.55-5.53L4.55-5.53Q3.09-6.62 3.09-8.17L3.09-8.17L3.09-20.31L1.22-20.31L1.22-8.17Q1.22-5.85 3.22-4.21L3.22-4.21Q5.24-2.56 8.07-2.56L8.07-2.56Z" transform="translate(111.6455078125 95.947265625) skewX(0)" fill="rgb(36, 111, 221)" stroke="rgb(36, 111, 221)" stroke-width="0.042" data-glyph-w="16.1376953125" data-glyph-h="26.0498046875" data-glyph-ascender="20.947265625" data-glyph-descender="-5.1025390625"/>
					<path d="M13.05-6.21L13.05-20.31L14.92-20.31L14.92-2.88L13.13-2.88L3.09-16.98L3.09-2.88L1.22-2.88L1.22-20.31L3.00-20.31L13.05-6.21Z" transform="translate(127.783203125 95.947265625) skewX(0)" fill="rgb(36, 111, 221)" stroke="rgb(36, 111, 221)" stroke-width="0.042" data-glyph-w="16.1376953125" data-glyph-h="26.0498046875" data-glyph-ascender="20.947265625" data-glyph-descender="-5.1025390625"/>
					<path d="M18.74-12.52L9.13-12.52L9.13-10.66L16.86-10.66Q16.58-8.29 14.82-6.53L14.82-6.53Q12.72-4.43 9.75-4.43L9.75-4.43Q6.79-4.43 4.69-6.53L4.69-6.53Q2.60-8.63 2.60-11.60L2.60-11.60Q2.60-14.56 4.69-16.66L4.69-16.66Q6.79-18.75 9.75-18.75L9.75-18.75Q13.10-18.75 15.25-16.20L15.25-16.20L16.67-17.40Q13.96-20.63 9.75-20.63L9.75-20.63Q6.02-20.63 3.37-17.98L3.37-17.98Q0.73-15.33 0.73-11.60L0.73-11.60Q0.73-7.85 3.37-5.21L3.37-5.21Q6.02-2.56 9.75-2.56L9.75-2.56Q13.50-2.56 16.14-5.21L16.14-5.21Q18.79-7.85 18.79-11.60L18.79-11.60Q18.79-12.06 18.74-12.52L18.74-12.52Z" transform="translate(143.9208984375 95.947265625) skewX(0)" fill="rgb(36, 111, 221)" stroke="rgb(36, 111, 221)" stroke-width="0.042" data-glyph-w="19.51904296875" data-glyph-h="26.0498046875" data-glyph-ascender="20.947265625" data-glyph-descender="-5.1025390625"/>
					<path d="M1.22-15.01L1.22-20.31L3.09-20.31L3.09-15.01L1.22-15.01Z" transform="translate(163.43994140625 95.947265625) skewX(0)" fill="rgb(36, 111, 221)" stroke="rgb(36, 111, 221)" stroke-width="0.042" data-glyph-w="4.30908203125" data-glyph-h="26.0498046875" data-glyph-ascender="20.947265625" data-glyph-descender="-5.1025390625"/>
					<path d="M7.90-18.75Q9.86-18.75 11.22-17.80L11.22-17.80Q12.56-16.85 12.56-15.49L12.56-15.49L14.43-15.49Q14.43-17.63 12.56-19.12L12.56-19.12Q10.67-20.63 7.90-20.63L7.90-20.63Q5.11-20.63 3.27-19.32L3.27-19.32Q1.35-17.97 1.35-15.80L1.35-15.80Q1.35-13.48 3.20-12.34L3.20-12.34Q4.44-11.58 7.28-11.10L7.28-11.10Q10.46-10.53 11.34-10.17L11.34-10.17Q13.18-9.41 13.18-7.70L13.18-7.70Q13.18-6.23 11.63-5.31L11.63-5.31Q10.16-4.43 7.90-4.43L7.90-4.43Q5.59-4.43 4.08-5.62L4.08-5.62Q2.60-6.77 2.60-8.48L2.60-8.48L0.73-8.48Q0.73-5.99 2.73-4.30L2.73-4.30Q4.79-2.56 7.90-2.56L7.90-2.56Q10.97-2.56 12.95-3.91L12.95-3.91Q15.05-5.32 15.05-7.70L15.05-7.70Q15.05-10.10 13.21-11.28L13.21-11.28Q11.94-12.10 9.14-12.60L9.14-12.60Q5.83-13.20 5.08-13.49L5.08-13.49Q3.22-14.21 3.22-15.80L3.22-15.80Q3.22-17.16 4.59-17.98L4.59-17.98Q5.90-18.75 7.90-18.75L7.90-18.75Z" transform="translate(167.7490234375 95.947265625) skewX(0)" fill="rgb(36, 111, 221)" stroke="rgb(36, 111, 221)" stroke-width="0.042" data-glyph-w="15.78369140625" data-glyph-h="26.0498046875" data-glyph-ascender="20.947265625" data-glyph-descender="-5.1025390625"/>
					<path d="" transform="translate(183.53271484375 95.947265625) skewX(0)" fill="rgb(36, 111, 221)" stroke="rgb(36, 111, 221)" stroke-width="0.042" data-glyph-w="9.950000000000001" data-glyph-h="25" data-glyph-ascender="22" data-glyph-descender="-3"/>
					<path d="M9.01-18.44L3.09-18.44L3.09-12.84L9.01-12.84Q10.17-12.84 10.99-13.66L10.99-13.66Q11.80-14.48 11.80-15.64L11.80-15.64Q11.80-16.81 10.99-17.63L10.99-17.63Q10.17-18.44 9.01-18.44L9.01-18.44ZM9.63-10.97L3.09-10.97L3.09-4.75L9.63-4.75Q10.91-4.75 11.83-5.65L11.83-5.65Q12.74-6.57 12.74-7.86L12.74-7.86Q12.74-9.14 11.83-10.06L11.83-10.06Q10.91-10.97 9.63-10.97L9.63-10.97ZM9.63-2.88L1.22-2.88L1.22-20.31L9.01-20.31Q10.94-20.31 12.30-18.95L12.30-18.95Q13.67-17.58 13.67-15.64L13.67-15.64Q13.67-13.71 12.30-12.34L12.30-12.34Q12.22-12.26 12.13-12.18L12.13-12.18Q12.67-11.85 13.15-11.38L13.15-11.38Q14.61-9.92 14.61-7.86L14.61-7.86Q14.61-5.80 13.15-4.33L13.15-4.33Q11.69-2.88 9.63-2.88L9.63-2.88Z" transform="translate(193.48271484375 95.947265625) skewX(0)" fill="rgb(36, 111, 221)" stroke="rgb(36, 111, 221)" stroke-width="0.042" data-glyph-w="15.34423828125" data-glyph-h="26.0498046875" data-glyph-ascender="20.947265625" data-glyph-descender="-5.1025390625"/>
					<path d="M3.09-20.31L3.09-4.75L11.80-4.75L11.80-2.88L1.22-2.88L1.22-20.31L3.09-20.31Z" transform="translate(208.826953125 95.947265625) skewX(0)" fill="rgb(36, 111, 221)" stroke="rgb(36, 111, 221)" stroke-width="0.042" data-glyph-w="12.53662109375" data-glyph-h="26.0498046875" data-glyph-ascender="20.947265625" data-glyph-descender="-5.1025390625"/>
					<path d="M9.77-20.63Q13.50-20.63 16.15-17.98L16.15-17.98Q18.79-15.33 18.79-11.60L18.79-11.60Q18.79-7.85 16.15-5.21L16.15-5.21Q13.50-2.56 9.77-2.56L9.77-2.56Q6.02-2.56 3.38-5.21L3.38-5.21Q0.73-7.85 0.73-11.60L0.73-11.60Q0.73-15.33 3.38-17.98L3.38-17.98Q6.02-20.63 9.77-20.63L9.77-20.63ZM9.77-18.75L9.77-18.75Q6.80-18.75 4.70-16.66L4.70-16.66Q2.60-14.56 2.60-11.60L2.60-11.60Q2.60-8.63 4.70-6.53L4.70-6.53Q6.80-4.43 9.77-4.43L9.77-4.43Q12.73-4.43 14.83-6.53L14.83-6.53Q16.92-8.63 16.92-11.60L16.92-11.60Q16.92-14.56 14.83-16.66L14.83-16.66Q12.73-18.75 9.77-18.75Z" transform="translate(221.36357421875 95.947265625) skewX(0)" fill="rgb(36, 111, 221)" stroke="rgb(36, 111, 221)" stroke-width="0.042" data-glyph-w="19.51904296875" data-glyph-h="26.0498046875" data-glyph-ascender="20.947265625" data-glyph-descender="-5.1025390625"/>
					<path d="M18.74-12.52L9.13-12.52L9.13-10.66L16.86-10.66Q16.58-8.29 14.82-6.53L14.82-6.53Q12.72-4.43 9.75-4.43L9.75-4.43Q6.79-4.43 4.69-6.53L4.69-6.53Q2.60-8.63 2.60-11.60L2.60-11.60Q2.60-14.56 4.69-16.66L4.69-16.66Q6.79-18.75 9.75-18.75L9.75-18.75Q13.10-18.75 15.25-16.20L15.25-16.20L16.67-17.40Q13.96-20.63 9.75-20.63L9.75-20.63Q6.02-20.63 3.37-17.98L3.37-17.98Q0.73-15.33 0.73-11.60L0.73-11.60Q0.73-7.85 3.37-5.21L3.37-5.21Q6.02-2.56 9.75-2.56L9.75-2.56Q13.50-2.56 16.14-5.21L16.14-5.21Q18.79-7.85 18.79-11.60L18.79-11.60Q18.79-12.06 18.74-12.52L18.74-12.52Z" transform="translate(240.8826171875 95.947265625) skewX(0)" fill="rgb(36, 111, 221)" stroke="rgb(36, 111, 221)" stroke-width="0.042" data-glyph-w="19.51904296875" data-glyph-h="26.0498046875" data-glyph-ascender="20.947265625" data-glyph-descender="-5.1025390625"/>
				</g>
			</svg>
		</g>
	</g>
</svg>